<?xml version="1.0" encoding="UTF-8"?><svg id="Layer_1" xmlns="http://www.w3.org/2000/svg" viewBox="0 0 106.99 48.22"><defs><style>.cls-1{fill:#023f88;fill-rule:evenodd;}</style></defs><path class="cls-1" d="M71.06,21.57c-1.67-5.37-8.76-5.27-10.37,0h10.37Zm35.93,15.92V10.07h-8.29v15.68c0,2.84-4.16,2.87-4.16,0V10.07h-8.27V0h-8.43V18.17c-2.71-5.81-7.84-8.8-14.26-7.9-4.62,1.03-7.9,3.59-9.68,7.9-1.6-5.11-5.37-7.82-10.63-8.1-5.58,0-9.73,2.73-11.4,8.1-2.82-6.19-8.44-9.19-15.14-7.67-4.03,1.26-6.46,3.38-8.29,7.12V0H0V35.86H8.44v-8.05c2.4,4.8,6.4,7.45,11.76,7.56,5.7-.34,9.36-3.04,11.67-8.1v8.59h8.12v-15.47c.31-3.38,5.45-3.48,5.76,0v15.47h8.15v-8.1c1.88,4.15,4.82,6.66,9.24,7.79,9.68,.91,13.51-5.74,13.56-7.42l-6.98-1.05c-3.53,2.68-7.57,1.29-8.85-2.27h16.97v11.04h8.43v-5.68c1.4,5.62,8.34,7.53,12.28,3.33,0,1.24-.13,2.68-.51,3.87-1.26,3.04-5.49,3.04-7.68,1l-4.97,6.43c3.17,2.5,6.38,3.71,10.48,3.33,3.38-.34,5.53-.93,8.1-3.25,1.96-2.19,2.89-4.46,3.01-7.4h0ZM19.86,17.3c2.95,0,5.34,2.4,5.34,5.34s-2.4,5.35-5.34,5.35-5.34-2.4-5.34-5.35,2.39-5.34,5.34-5.34h0Zm-.32,.03l.08-7.19"/></svg>