<?xml version="1.0" encoding="UTF-8"?><svg id="Layer_1" xmlns="http://www.w3.org/2000/svg" viewBox="0 0 115.8 45.39"><defs><style>.cls-1{fill:#023f88;fill-rule:evenodd;}</style></defs><path class="cls-1" d="M85.02,21.14h10.22c-1.61-5.22-8.83-5.01-10.22,0h0Zm4.61-10.96l.3,7.18m25.19,8.77l.38-.33,.31,7.1c.08,1.7-6.42,4.23-10.03,1.6-3.61-2.63-3.69-5.66-3.69-9.67h-17c1.83,4.83,7.62,4.31,9.24,1.88l7.05,1.14c-2.61,8.15-9.58,9.22-16.27,7.04-3.38-1.65-5.42-3.66-6.95-7.12v8.1h-8.29c0-4.98,.01-10.63-.05-15.7-.28-3.3-5.56-3.02-5.56,.2v15.5l-8.2,.13h-5.64v-4.91c-.01-1.95-2.23,5.08-4.89,4.91-5.75,.41-10.39-2.55-12.82-7.71v7.58h-8.44v-7.58c-2.45,4.92-8.87,8.1-15.17,6.5l-.93-.39s.26,8.75,.26,11H0V23.04C.21,12.49,11.59,6.24,20.24,12.51c1.83,1.5,2.96,2.99,4.02,5.11V0h8.44V17.62c2.73-5.62,8.02-8.33,14.24-7.3,4.62,1.27,7.3,3.53,9.16,7.84,2.35-6.87,8.85-9.68,15.61-7.3,3.4,1.6,5.23,3.77,6.45,7.3,3.08-6.74,9.76-9.65,16.75-7.17,3.49,1.6,5.71,3.64,7.17,7.17V5.06h8.15v5.15h5.16v7.55h-5.16c0,2.55-.41,5.13,.38,7.54,.78,1.68,3,2.05,4.5,.83h0ZM44.21,17.45c2.94,0,5.34,2.4,5.34,5.34s-2.4,5.34-5.34,5.34-5.34-2.4-5.34-5.34,2.39-5.34,5.34-5.34h0Zm-.16-.01l-.08-7.28m-30.93,7.3c2.94,0,5.34,2.4,5.34,5.34s-2.4,5.34-5.34,5.34-5.35-2.4-5.35-5.34,2.4-5.34,5.35-5.34h0Zm-.19,0l-.19-7.3m34.09,29.85"/></svg>